<svg id="svg" version="1.1" xmlns="http://www.w3.org/2000/svg" xmlns:xlink="http://www.w3.org/1999/xlink" width="400" height="400" viewBox="0, 0, 400,400"><g id="svgg"><path id="path0" d="M47.000 60.560 C 42.274 62.062,38.018 65.785,35.889 70.279 L 34.600 73.000 34.495 133.429 L 34.390 193.858 35.368 197.712 C 38.650 210.650,48.543 220.548,61.468 223.827 L 65.303 224.800 215.855 224.800 L 366.408 224.800 366.304 148.900 L 366.200 73.000 364.911 70.279 C 363.196 66.659,359.741 63.204,356.121 61.489 L 353.400 60.200 201.000 60.126 C 78.678 60.066,48.284 60.152,47.000 60.560 M134.271 94.026 C 146.768 95.729,155.444 101.024,161.403 110.584 C 163.245 113.539,166.640 121.093,166.286 121.448 C 166.097 121.636,142.850 126.800,142.190 126.800 C 141.963 126.800,141.266 125.625,140.641 124.190 C 135.191 111.681,116.715 111.325,110.737 123.614 C 108.525 128.161,108.209 130.207,108.204 140.000 C 108.196 157.252,111.646 163.530,122.039 165.178 C 131.997 166.756,139.329 161.359,142.041 150.454 C 142.335 149.274,142.761 148.238,142.987 148.153 C 143.394 148.001,166.744 155.010,167.136 155.402 C 167.571 155.838,164.248 164.869,162.539 167.895 C 154.099 182.839,137.543 189.125,115.400 185.793 C 92.545 182.354,79.890 165.950,79.921 139.800 C 79.953 112.977,92.848 97.006,117.000 93.875 C 119.690 93.527,131.352 93.629,134.271 94.026 M208.800 107.600 L 208.800 120.000 215.600 120.000 L 222.400 120.000 222.400 129.200 L 222.400 138.400 215.572 138.400 L 208.743 138.400 208.872 151.971 C 209.039 169.715,209.323 170.159,218.944 167.744 C 220.234 167.420,221.380 167.247,221.492 167.359 C 221.828 167.695,223.524 184.179,223.251 184.456 C 221.050 186.692,199.546 186.916,193.789 184.761 C 185.608 181.701,183.974 176.761,183.710 154.300 L 183.523 138.400 178.962 138.400 L 174.400 138.400 174.400 129.200 L 174.400 120.000 178.990 120.000 L 183.579 120.000 183.690 113.936 L 183.800 107.872 196.000 101.552 C 202.710 98.077,208.335 95.226,208.500 95.217 C 208.665 95.207,208.800 100.780,208.800 107.600 M320.000 140.000 L 320.000 184.800 307.400 184.800 L 294.800 184.800 294.800 140.000 L 294.800 95.200 307.400 95.200 L 320.000 95.200 320.000 140.000 M278.626 118.949 C 281.280 119.656,285.600 121.605,285.600 122.095 C 285.600 122.441,279.217 137.215,278.349 138.878 C 278.020 139.508,277.836 139.499,275.698 138.745 C 263.358 134.394,259.600 142.358,259.600 172.858 L 259.600 184.800 247.000 184.800 L 234.400 184.800 234.400 152.400 L 234.400 120.000 246.200 120.000 L 258.000 120.000 258.007 124.900 L 258.014 129.800 259.199 127.651 C 263.536 119.784,270.330 116.740,278.626 118.949 M55.200 254.800 L 55.200 266.000 69.200 266.000 L 83.200 266.000 83.200 299.600 L 83.200 333.200 97.400 333.200 L 111.600 333.200 111.600 299.600 L 111.600 266.000 125.600 266.000 L 139.600 266.000 139.600 254.800 L 139.600 243.600 97.400 243.600 L 55.200 243.600 55.200 254.800 M201.200 252.400 L 201.200 261.200 213.800 261.200 L 226.400 261.200 226.400 252.400 L 226.400 243.600 213.800 243.600 L 201.200 243.600 201.200 252.400 M326.000 288.600 L 326.000 333.600 338.800 333.600 L 351.600 333.600 351.600 288.600 L 351.600 243.600 338.800 243.600 L 326.000 243.600 326.000 288.600 M179.304 267.169 C 175.752 268.069,172.789 270.689,169.770 275.600 L 168.418 277.800 168.409 273.100 L 168.400 268.400 156.598 268.400 L 144.795 268.400 144.898 300.900 L 145.000 333.400 157.447 333.506 L 169.894 333.611 170.123 318.506 C 170.412 299.490,171.100 294.554,174.072 290.159 C 176.477 286.604,180.947 285.459,185.786 287.161 C 188.730 288.196,188.684 288.197,189.028 287.100 C 189.183 286.605,189.825 285.070,190.455 283.690 C 191.085 282.309,191.600 281.107,191.600 281.018 C 191.600 280.929,192.120 279.718,192.756 278.328 C 196.812 269.462,196.839 270.224,192.397 268.422 C 188.805 266.964,182.494 266.360,179.304 267.169 M262.400 267.440 C 251.116 269.246,244.957 273.708,241.853 282.324 C 240.021 287.411,238.975 286.822,252.700 288.439 L 264.600 289.840 265.709 287.620 C 267.819 283.397,270.647 282.000,277.085 282.000 C 283.269 282.000,285.985 284.149,285.998 289.051 C 286.002 290.513,278.805 292.636,261.800 296.191 C 244.289 299.851,238.800 304.591,238.800 316.054 C 238.800 328.137,247.378 334.812,262.879 334.793 C 272.909 334.781,279.799 332.540,285.463 327.447 L 287.452 325.659 287.930 327.929 C 288.193 329.178,288.817 330.920,289.316 331.800 L 290.225 333.400 301.607 333.506 C 315.111 333.633,314.237 333.816,313.005 331.118 C 310.880 326.466,310.800 325.577,310.800 306.760 C 310.800 280.386,309.111 274.960,299.412 270.167 C 293.340 267.167,273.319 265.692,262.400 267.440 M201.200 301.000 L 201.200 333.600 213.800 333.600 L 226.400 333.600 226.400 301.000 L 226.400 268.400 213.800 268.400 L 201.200 268.400 201.200 301.000 M285.893 306.700 C 285.618 311.697,284.825 313.902,282.464 316.230 C 276.331 322.277,265.364 321.746,264.163 315.343 C 263.292 310.702,266.478 308.308,277.600 305.247 C 280.790 304.370,283.850 303.471,284.400 303.251 C 284.950 303.031,285.559 302.839,285.753 302.825 C 285.949 302.811,286.011 304.540,285.893 306.700 " stroke="none" fill="#0c4c74" fill-rule="evenodd"></path><path id="path1" d="M117.000 93.875 C 94.810 96.752,79.583 113.702,80.057 135.000 C 80.103 137.069,80.157 136.876,80.447 133.603 C 82.708 108.107,98.673 93.983,125.200 94.010 C 142.001 94.027,152.583 98.709,159.969 109.393 C 162.309 112.778,165.215 118.683,165.327 120.279 L 165.400 121.324 154.000 123.848 C 141.236 126.675,141.918 126.637,141.290 124.542 C 139.752 119.411,134.364 115.015,129.100 114.595 L 127.000 114.427 128.962 114.789 C 134.089 115.736,138.507 119.292,140.641 124.190 C 141.266 125.625,141.963 126.800,142.190 126.800 C 142.850 126.800,166.097 121.636,166.286 121.448 C 167.232 120.502,160.713 108.819,157.061 104.915 C 148.747 96.027,133.281 91.765,117.000 93.875 M196.000 101.552 L 183.800 107.872 183.690 113.936 L 183.579 120.000 178.990 120.000 L 174.400 120.000 174.400 129.200 C 174.400 134.260,174.535 138.400,174.700 138.400 C 174.865 138.401,174.948 134.351,174.885 129.400 L 174.771 120.400 179.375 120.400 L 183.979 120.400 184.090 114.300 L 184.200 108.200 196.000 102.115 C 202.490 98.769,207.935 96.024,208.100 96.015 C 208.265 96.007,208.400 101.490,208.400 108.200 L 208.400 120.400 215.500 120.310 L 222.600 120.220 215.700 120.101 L 208.800 119.981 208.800 107.591 C 208.800 100.776,208.665 95.207,208.500 95.217 C 208.335 95.226,202.710 98.077,196.000 101.552 M307.103 95.500 L 319.607 95.611 319.503 140.206 C 319.447 164.733,319.535 184.800,319.700 184.800 C 319.865 184.800,320.000 164.640,320.000 140.000 L 320.000 95.200 307.300 95.294 L 294.600 95.388 307.103 95.500 M119.978 114.980 C 111.009 118.285,107.598 125.222,107.602 140.152 C 107.605 156.796,112.001 164.771,121.530 165.418 L 123.800 165.573 121.617 165.178 C 111.590 163.364,108.196 156.993,108.204 140.000 C 108.212 123.782,112.507 116.328,122.708 114.833 C 124.968 114.502,124.975 114.497,123.200 114.477 C 122.210 114.466,120.760 114.692,119.978 114.980 M268.133 119.140 C 264.704 120.325,261.224 123.632,259.171 127.656 C 257.835 130.276,258.329 129.910,260.329 126.800 C 265.318 119.043,272.620 116.816,281.493 120.343 C 285.716 122.022,285.708 121.059,281.573 130.417 C 277.326 140.027,278.065 139.034,275.750 138.245 C 274.709 137.890,273.305 137.620,272.629 137.644 C 271.505 137.684,271.537 137.716,273.000 138.016 C 273.880 138.196,275.363 138.618,276.296 138.953 C 277.857 139.513,278.021 139.508,278.348 138.881 C 279.217 137.216,285.600 122.442,285.600 122.095 C 285.600 121.605,281.280 119.656,278.626 118.949 C 275.740 118.181,270.641 118.274,268.133 119.140 M234.400 152.400 C 234.400 170.220,234.535 184.800,234.700 184.800 C 234.865 184.800,234.953 170.310,234.895 152.600 L 234.791 120.400 246.183 120.400 L 257.575 120.400 257.701 125.100 L 257.828 129.800 257.914 124.900 L 258.000 120.000 246.200 120.000 L 234.400 120.000 234.400 152.400 M266.200 138.515 C 262.351 140.686,259.459 148.735,259.656 156.729 C 259.700 158.510,259.780 158.176,260.029 155.180 C 260.916 144.477,263.801 139.064,269.200 137.974 L 270.600 137.692 269.200 137.653 C 268.421 137.631,267.090 138.013,266.200 138.515 M79.709 140.000 C 79.709 140.990,79.787 141.395,79.882 140.900 C 79.978 140.405,79.978 139.595,79.882 139.100 C 79.787 138.605,79.709 139.010,79.709 140.000 M183.807 154.200 C 183.933 176.719,185.554 181.680,193.789 184.761 C 199.546 186.916,221.050 186.692,223.251 184.456 C 223.524 184.179,221.828 167.695,221.492 167.359 C 221.380 167.247,220.234 167.423,218.944 167.749 C 217.655 168.076,216.150 168.422,215.600 168.517 C 214.704 168.673,214.725 168.696,215.800 168.741 C 216.460 168.768,217.945 168.539,219.100 168.231 C 220.255 167.924,221.211 167.701,221.225 167.736 C 221.640 168.818,222.940 184.122,222.625 184.233 C 215.898 186.615,197.975 186.436,193.077 183.937 C 185.639 180.143,184.408 176.079,184.005 154.000 L 183.717 138.200 183.807 154.200 M208.498 150.800 C 208.418 166.839,208.845 168.850,212.322 168.777 C 213.346 168.756,213.331 168.731,212.037 168.277 C 209.035 167.225,209.026 167.183,208.781 151.871 L 208.562 138.200 208.498 150.800 M80.070 144.630 C 79.801 153.964,84.071 165.083,91.183 173.569 C 105.869 191.093,144.170 191.205,158.556 173.765 C 162.215 169.328,168.217 156.484,167.136 155.402 C 166.744 155.010,143.394 148.001,142.987 148.153 C 142.761 148.238,142.335 149.274,142.041 150.454 C 139.927 158.956,134.988 164.246,128.266 165.209 L 125.800 165.563 128.342 165.416 C 135.184 165.019,142.800 156.409,142.800 149.072 C 142.800 148.569,143.015 148.409,143.500 148.551 C 144.851 148.947,164.214 154.842,165.466 155.238 L 166.732 155.640 166.012 158.120 C 159.834 179.385,142.970 188.795,116.790 185.584 C 95.200 182.937,81.975 167.879,80.268 144.000 C 80.162 142.507,80.128 142.614,80.070 144.630 M259.111 172.400 C 259.050 179.220,259.135 184.800,259.300 184.800 C 259.465 184.800,259.600 179.220,259.600 172.400 C 259.600 165.580,259.515 160.000,259.411 160.000 C 259.307 160.000,259.172 165.580,259.111 172.400 " stroke="none" fill="#29587e" fill-rule="evenodd"></path></g></svg>